<svg xmlns="http://www.w3.org/2000/svg" viewBox="0 0 200 200" fill="none">
  <circle cx="100" cy="100" r="100" fill="url(#haneul-bg)"/>
  <!-- 머리카락 (밝은 갈색, 웨이브) -->
  <ellipse cx="100" cy="88" rx="60" ry="63" fill="#8B6914"/>
  <path d="M40 88 Q35 130 50 160 L42 125 Z" fill="#8B6914"/>
  <path d="M160 88 Q165 130 150 160 L158 125 Z" fill="#8B6914"/>
  <!-- 웨이브 디테일 -->
  <path d="M42 110 Q48 125 42 140" stroke="#A07D1C" stroke-width="3" fill="none" opacity="0.5"/>
  <path d="M158 110 Q152 125 158 140" stroke="#A07D1C" stroke-width="3" fill="none" opacity="0.5"/>
  <!-- 앞머리 (부드러운 시드뱅) -->
  <path d="M55 78 Q75 52 100 55 Q125 52 145 78 Q135 58 100 56 Q65 58 55 78Z" fill="#9E7A18"/>
  <!-- 얼굴 -->
  <ellipse cx="100" cy="108" rx="47" ry="50" fill="#FDECD0"/>
  <!-- 눈 (큰 동그란 눈) -->
  <ellipse cx="78" cy="103" rx="9" ry="10" fill="white"/>
  <ellipse cx="122" cy="103" rx="9" ry="10" fill="white"/>
  <ellipse cx="79" cy="104" rx="6" ry="7" fill="#D97706"/>
  <ellipse cx="123" cy="104" rx="6" ry="7" fill="#D97706"/>
  <circle cx="81" cy="101" r="2.5" fill="white"/>
  <circle cx="125" cy="101" r="2.5" fill="white"/>
  <!-- 눈썹 (부드럽게) -->
  <path d="M67 91 Q76 87 87 90" stroke="#8B6914" stroke-width="2" fill="none" stroke-linecap="round"/>
  <path d="M113 90 Q124 87 133 91" stroke="#8B6914" stroke-width="2" fill="none" stroke-linecap="round"/>
  <!-- 입 (활짝 웃는) -->
  <path d="M87 120 Q100 130 113 120" stroke="#E8967A" stroke-width="2.5" fill="#FFE4E1" stroke-linecap="round"/>
  <!-- 볼 터치 -->
  <ellipse cx="67" cy="115" rx="9" ry="6" fill="#FFCBA4" opacity="0.4"/>
  <ellipse cx="133" cy="115" rx="9" ry="6" fill="#FFCBA4" opacity="0.4"/>
  <!-- 해바라기 머리핀 -->
  <circle cx="148" cy="78" r="7" fill="#FCD34D"/>
  <circle cx="148" cy="78" r="3.5" fill="#92400E"/>
  <circle cx="143" cy="73" r="3" fill="#FBBF24"/>
  <circle cx="153" cy="73" r="3" fill="#FBBF24"/>
  <circle cx="143" cy="83" r="3" fill="#FBBF24"/>
  <circle cx="153" cy="83" r="3" fill="#FBBF24"/>
  <defs>
    <radialGradient id="haneul-bg" cx="0.5" cy="0.5" r="0.5">
      <stop offset="0%" stop-color="#FEF3C7"/>
      <stop offset="100%" stop-color="#FDE68A"/>
    </radialGradient>
  </defs>
</svg>
