<svg xmlns="http://www.w3.org/2000/svg" viewBox="0 0 200 200" fill="none">
  <circle cx="100" cy="100" r="100" fill="url(#luca-bg)"/>
  <!-- 머리카락 (은발, 깔끔) -->
  <ellipse cx="100" cy="82" rx="58" ry="60" fill="#C0C0D0"/>
  <path d="M42 82 Q38 115 48 140 L40 110 Z" fill="#B0B0C2"/>
  <path d="M158 82 Q162 115 152 140 L160 110 Z" fill="#B0B0C2"/>
  <!-- 앞머리 (한쪽으로 넘긴) -->
  <path d="M50 72 Q70 42 105 48 Q140 42 155 72 Q148 50 105 46 Q62 50 50 72Z" fill="#D0D0E0"/>
  <path d="M48 75 Q60 50 78 62 Q68 52 48 75Z" fill="#D0D0E0" opacity="0.7"/>
  <!-- 얼굴 -->
  <ellipse cx="100" cy="105" rx="46" ry="50" fill="#F5E6D3"/>
  <!-- 눈 (날카롭고 신비로운) -->
  <path d="M68 96 Q78 92 88 100 Q78 104 68 100Z" fill="white"/>
  <path d="M112 100 Q122 92 132 96 Q132 104 122 104Z" fill="white"/>
  <ellipse cx="79" cy="99" rx="5" ry="5.5" fill="#6366F1"/>
  <ellipse cx="121" cy="99" rx="5" ry="5.5" fill="#6366F1"/>
  <circle cx="81" cy="97" r="2" fill="white"/>
  <circle cx="123" cy="97" r="2" fill="white"/>
  <!-- 눈썹 (날카로운) -->
  <path d="M66 88 Q76 83 88 86" stroke="#9090A0" stroke-width="2" fill="none" stroke-linecap="round"/>
  <path d="M112 86 Q124 83 134 88" stroke="#9090A0" stroke-width="2" fill="none" stroke-linecap="round"/>
  <!-- 입 (미소가 거의 없는 절제된 표정) -->
  <path d="M92 118 Q100 120 108 118" stroke="#D4A58C" stroke-width="1.8" fill="none" stroke-linecap="round"/>
  <!-- 볼 터치 (미세하게) -->
  <ellipse cx="70" cy="112" rx="6" ry="4" fill="#E8C4B8" opacity="0.25"/>
  <ellipse cx="130" cy="112" rx="6" ry="4" fill="#E8C4B8" opacity="0.25"/>
  <!-- 음표 장식 -->
  <text x="150" y="68" font-size="16" fill="#8B5CF6" opacity="0.7">♪</text>
  <text x="158" y="58" font-size="12" fill="#A78BFA" opacity="0.5">♫</text>
  <!-- 귀걸이 -->
  <circle cx="54" cy="108" r="3" fill="#C4B5FD"/>
  <defs>
    <radialGradient id="luca-bg" cx="0.5" cy="0.5" r="0.5">
      <stop offset="0%" stop-color="#E0E7FF"/>
      <stop offset="100%" stop-color="#C7D2FE"/>
    </radialGradient>
  </defs>
</svg>
