<svg xmlns="http://www.w3.org/2000/svg" viewBox="0 0 200 200" fill="none">
  <!-- 배경 원 -->
  <circle cx="100" cy="100" r="100" fill="url(#miyu-bg)"/>
  <!-- 머리카락 -->
  <ellipse cx="100" cy="85" rx="62" ry="65" fill="#2D1B4E"/>
  <path d="M38 85 Q38 140 55 155 L40 120 Z" fill="#2D1B4E"/>
  <path d="M162 85 Q162 140 145 155 L160 120 Z" fill="#2D1B4E"/>
  <!-- 앞머리 -->
  <path d="M50 75 Q65 45 100 50 Q135 45 150 75 Q145 55 100 52 Q55 55 50 75Z" fill="#3D2660"/>
  <path d="M55 80 Q70 55 85 70" fill="#3D2660" opacity="0.6"/>
  <path d="M145 80 Q130 55 115 70" fill="#3D2660" opacity="0.6"/>
  <!-- 얼굴 -->
  <ellipse cx="100" cy="105" rx="48" ry="52" fill="#FDE8D0"/>
  <!-- 눈 -->
  <ellipse cx="78" cy="100" rx="8" ry="9" fill="white"/>
  <ellipse cx="122" cy="100" rx="8" ry="9" fill="white"/>
  <ellipse cx="79" cy="101" rx="5.5" ry="6" fill="#8B5CF6"/>
  <ellipse cx="123" cy="101" rx="5.5" ry="6" fill="#8B5CF6"/>
  <circle cx="80" cy="99" r="2" fill="white"/>
  <circle cx="124" cy="99" r="2" fill="white"/>
  <!-- 약간 찡그린 눈썹 (츤데레) -->
  <path d="M68 88 Q75 84 86 87" stroke="#3D2660" stroke-width="2.5" fill="none" stroke-linecap="round"/>
  <path d="M114 87 Q125 84 132 88" stroke="#3D2660" stroke-width="2.5" fill="none" stroke-linecap="round"/>
  <!-- 입 (살짝 삐진 표정) -->
  <path d="M90 118 Q100 115 110 118" stroke="#E8967A" stroke-width="2" fill="none" stroke-linecap="round"/>
  <!-- 볼 터치 -->
  <ellipse cx="68" cy="112" rx="8" ry="5" fill="#FFB5B5" opacity="0.35"/>
  <ellipse cx="132" cy="112" rx="8" ry="5" fill="#FFB5B5" opacity="0.35"/>
  <!-- 벚꽃 머리핀 -->
  <circle cx="145" cy="72" r="5" fill="#FFB7C5"/>
  <circle cx="140" cy="68" r="4" fill="#FFC5D0"/>
  <circle cx="150" cy="68" r="4" fill="#FFC5D0"/>
  <circle cx="145" cy="64" r="3.5" fill="#FFD1DC"/>
  <circle cx="145" cy="70" r="2" fill="#FFE4E8"/>
  <defs>
    <radialGradient id="miyu-bg" cx="0.5" cy="0.5" r="0.5">
      <stop offset="0%" stop-color="#DDD6FE"/>
      <stop offset="100%" stop-color="#C4B5FD"/>
    </radialGradient>
  </defs>
</svg>
