<svg xmlns="http://www.w3.org/2000/svg" viewBox="0 0 200 200" width="200" height="200">
  <defs>
    <radialGradient id="ren-bg" cx="50%" cy="50%" r="50%">
      <stop offset="0%" style="stop-color:#2d1b3d"/>
      <stop offset="100%" style="stop-color:#1a0a2e"/>
    </radialGradient>
    <radialGradient id="ren-skin" cx="50%" cy="40%" r="50%">
      <stop offset="0%" style="stop-color:#f0e6ef"/>
      <stop offset="100%" style="stop-color:#e0d0de"/>
    </radialGradient>
  </defs>
  <!-- 배경 -->
  <circle cx="100" cy="100" r="100" fill="url(#ren-bg)"/>
  <!-- 박쥐 날개 장식 -->
  <path d="M 30 80 Q 20 60 35 50 Q 40 55 45 50 Q 50 55 55 48 L 55 75 Z" fill="#3d1f5c" opacity="0.4"/>
  <path d="M 170 80 Q 180 60 165 50 Q 160 55 155 50 Q 150 55 145 48 L 145 75 Z" fill="#3d1f5c" opacity="0.4"/>
  <!-- 머리카락 (검은색 + 보라 하이라이트) -->
  <ellipse cx="100" cy="85" rx="55" ry="60" fill="#1a0a1a"/>
  <path d="M 50 85 Q 55 40 100 30 Q 145 40 150 85 Q 145 50 120 45 Q 100 42 80 45 Q 55 50 50 85Z" fill="#2a0a2a"/>
  <path d="M 60 65 Q 65 50 80 45" stroke="#6b21a8" stroke-width="2" fill="none" opacity="0.6"/>
  <path d="M 115 42 Q 130 48 140 65" stroke="#6b21a8" stroke-width="2" fill="none" opacity="0.6"/>
  <!-- 앞머리 (눈 위 날카로운) -->
  <path d="M 55 75 Q 70 60 85 72 L 80 80 Z" fill="#1a0a1a"/>
  <path d="M 145 75 Q 130 60 115 72 L 120 80 Z" fill="#1a0a1a"/>
  <!-- 얼굴 -->
  <ellipse cx="100" cy="105" rx="42" ry="45" fill="url(#ren-skin)"/>
  <!-- 눈 (날카로운 빨간 눈) -->
  <path d="M 72 98 Q 82 93 92 98 Q 82 100 72 98Z" fill="white"/>
  <circle cx="82" cy="97" r="5" fill="#8b0000"/>
  <circle cx="82" cy="97" r="2.5" fill="#ff0000"/>
  <circle cx="83.5" cy="95.5" r="1" fill="white"/>
  <path d="M 108 98 Q 118 93 128 98 Q 118 100 108 98Z" fill="white"/>
  <circle cx="118" cy="97" r="5" fill="#8b0000"/>
  <circle cx="118" cy="97" r="2.5" fill="#ff0000"/>
  <circle cx="119.5" cy="95.5" r="1" fill="white"/>
  <!-- 눈썹 (날카로운) -->
  <path d="M 72 90 Q 82 85 92 89" stroke="#1a0a1a" stroke-width="2.5" fill="none" stroke-linecap="round"/>
  <path d="M 108 89 Q 118 85 128 90" stroke="#1a0a1a" stroke-width="2.5" fill="none" stroke-linecap="round"/>
  <!-- 코 -->
  <path d="M 98 107 L 100 112 L 102 107" stroke="#c4a0c2" stroke-width="1" fill="none"/>
  <!-- 입 (미소 + 송곳니) -->
  <path d="M 88 120 Q 100 127 112 120" stroke="#8b4060" stroke-width="1.5" fill="none"/>
  <path d="M 90 120 L 92 124" stroke="white" stroke-width="1.5" stroke-linecap="round"/>
  <path d="M 110 120 L 108 124" stroke="white" stroke-width="1.5" stroke-linecap="round"/>
  <!-- 목 + 칼라 -->
  <rect x="88" y="145" width="24" height="15" fill="url(#ren-skin)"/>
  <path d="M 75 155 L 100 168 L 125 155 L 120 160 L 100 172 L 80 160 Z" fill="#1a0a1a"/>
  <!-- 보석 목걸이 -->
  <circle cx="100" cy="158" r="4" fill="#7c3aed"/>
  <circle cx="100" cy="158" r="2" fill="#a855f7" opacity="0.8"/>
  <!-- 달빛 이펙트 -->
  <circle cx="160" cy="30" r="12" fill="#e0e0ff" opacity="0.15"/>
  <circle cx="160" cy="30" r="8" fill="#f0f0ff" opacity="0.1"/>
</svg>
