<svg xmlns="http://www.w3.org/2000/svg" viewBox="0 0 200 200" width="200" height="200">
  <defs>
    <radialGradient id="yujin-bg" cx="50%" cy="50%" r="50%">
      <stop offset="0%" style="stop-color:#1a2332"/>
      <stop offset="100%" style="stop-color:#0f1720"/>
    </radialGradient>
    <radialGradient id="yujin-skin" cx="50%" cy="40%" r="50%">
      <stop offset="0%" style="stop-color:#fce8d5"/>
      <stop offset="100%" style="stop-color:#f0d5be"/>
    </radialGradient>
  </defs>
  <!-- 배경 -->
  <circle cx="100" cy="100" r="100" fill="url(#yujin-bg)"/>
  <!-- 도시 실루엣 -->
  <rect x="20" y="170" width="8" height="30" fill="#2a3a4a" opacity="0.3"/>
  <rect x="32" y="165" width="6" height="35" fill="#2a3a4a" opacity="0.25"/>
  <rect x="160" y="168" width="10" height="32" fill="#2a3a4a" opacity="0.3"/>
  <rect x="175" y="172" width="7" height="28" fill="#2a3a4a" opacity="0.25"/>
  <!-- 머리카락 (짧은 슬릭백) -->
  <ellipse cx="100" cy="82" rx="50" ry="52" fill="#1a1a2e"/>
  <path d="M 55 82 Q 60 35 100 28 Q 140 35 145 82 Q 140 45 100 38 Q 60 45 55 82Z" fill="#252540"/>
  <!-- 슬릭백 하이라이트 -->
  <path d="M 75 38 Q 90 30 105 35" stroke="#404060" stroke-width="1.5" fill="none" opacity="0.5"/>
  <path d="M 80 42 Q 95 34 110 38" stroke="#404060" stroke-width="1" fill="none" opacity="0.4"/>
  <!-- 얼굴 -->
  <ellipse cx="100" cy="105" rx="40" ry="43" fill="url(#yujin-skin)"/>
  <!-- 턱선 (날카로운) -->
  <path d="M 62 105 Q 100 155 138 105" fill="url(#yujin-skin)" opacity="0"/>
  <!-- 눈 (날카롭고 차가운) -->
  <path d="M 73 97 Q 83 93 93 97 Q 83 99 73 97Z" fill="white"/>
  <circle cx="83" cy="96.5" r="4.5" fill="#1a1a2e"/>
  <circle cx="83" cy="96.5" r="2.5" fill="#334155"/>
  <circle cx="84.5" cy="95" r="1.2" fill="white"/>
  <path d="M 107 97 Q 117 93 127 97 Q 117 99 107 97Z" fill="white"/>
  <circle cx="117" cy="96.5" r="4.5" fill="#1a1a2e"/>
  <circle cx="117" cy="96.5" r="2.5" fill="#334155"/>
  <circle cx="118.5" cy="95" r="1.2" fill="white"/>
  <!-- 눈썹 (직선적, 강함) -->
  <path d="M 73 89 L 93 87" stroke="#1a1a2e" stroke-width="2.8" fill="none" stroke-linecap="round"/>
  <path d="M 107 87 L 127 89" stroke="#1a1a2e" stroke-width="2.8" fill="none" stroke-linecap="round"/>
  <!-- 코 -->
  <path d="M 98 105 L 100 112 L 102 105" stroke="#d4a08a" stroke-width="1.2" fill="none"/>
  <!-- 입 (일자, 무표정) -->
  <path d="M 90 122 Q 100 124 110 122" stroke="#b07060" stroke-width="1.5" fill="none"/>
  <!-- 안경 (무테) -->
  <rect x="70" y="91" width="25" height="12" rx="6" ry="6" fill="none" stroke="#94a3b8" stroke-width="0.8" opacity="0.5"/>
  <rect x="105" y="91" width="25" height="12" rx="6" ry="6" fill="none" stroke="#94a3b8" stroke-width="0.8" opacity="0.5"/>
  <line x1="95" y1="96" x2="105" y2="96" stroke="#94a3b8" stroke-width="0.6" opacity="0.5"/>
  <!-- 목 + 셔츠 -->
  <rect x="88" y="143" width="24" height="12" fill="url(#yujin-skin)"/>
  <!-- 정장 칼라 -->
  <path d="M 70 155 L 85 150 L 100 165 L 115 150 L 130 155 L 125 175 L 75 175 Z" fill="#1e293b"/>
  <!-- 넥타이 -->
  <path d="M 97 150 L 100 168 L 103 150" fill="#3b82f6"/>
  <polygon points="96,150 104,150 103,153 97,153" fill="#2563eb"/>
  <!-- 커프스 빛 반사 -->
  <circle cx="100" cy="152" r="2" fill="#60a5fa" opacity="0.3"/>
</svg>
